<?xml version="1.0" encoding="UTF-8"?>
<svg width="16px" height="16px" viewBox="0 0 16 16" version="1.1" xmlns="http://www.w3.org/2000/svg" xmlns:xlink="http://www.w3.org/1999/xlink">
    <!-- Generator: Sketch 52.2 (67145) - http://www.bohemiancoding.com/sketch -->
    <desc>Created with Sketch.</desc>
    <g id="ele-active-jqrjk-copy" stroke="none" stroke-width="1" fill="none" fill-rule="evenodd">
        <g id="icon-color" fill="currentColor" fill-rule="nonzero">
            <g id="Mask">
                <path d="M8.13079285,7.50562336 L9.74243331,5.20396224 L10.8678822,4.90423978 L10.9711614,6.0643269 L9.35969845,8.36573447 C9.44971777,8.55838218 9.5,8.77331907 9.5,9 C9.5,9.82842712 8.82842712,10.5 8,10.5 C7.17157288,10.5 6.5,9.82842712 6.5,9 C6.5,8.17157288 7.17157288,7.5 8,7.5 C8.04406727,7.5 8.08769072,7.50190028 8.13079285,7.50562336 Z M12.5888289,13.1035475 C13.769425,11.9267026 14.5,10.2986687 14.5,8.5 C14.5,4.91014913 11.5898509,2 8,2 C4.41014913,2 1.5,4.91014913 1.5,8.5 C1.5,10.2911821 2.22450589,11.9131468 3.39645246,13.0888289 L2.33579119,14.1494902 C0.892398518,12.7023605 0,10.7053957 0,8.5 C0,4.081722 3.581722,0.5 8,0.5 C12.418278,0.5 16,4.081722 16,8.5 C16,10.7128823 15.1015324,12.7159163 13.6494902,14.1642088 L12.5888289,13.1035475 Z M5,13.5 L11,13.5 L11,15 L5,15 L5,13.5 Z"></path>
            </g>
        </g>
    </g>
</svg>
