<?xml version="1.0" encoding="UTF-8"?>
<svg width="16px" height="16px" viewBox="0 0 16 16" version="1.1" xmlns="http://www.w3.org/2000/svg" xmlns:xlink="http://www.w3.org/1999/xlink">
    <!-- Generator: Sketch 52.2 (67145) - http://www.bohemiancoding.com/sketch -->
    <desc>Created with Sketch.</desc>
    <g id="ele-active-task" stroke="none" stroke-width="1" fill="none" fill-rule="evenodd">
        <g id="icon-color" fill="currentColor" fill-rule="nonzero">
            <path d="M1.5,1.5 L1.5,14.5 L14.5,14.5 L14.5,1.5 L1.5,1.5 Z M0,0 L16,0 L16,16 L0,16 L0,0 Z M6,5.5 L6,4 L12.5,4 L12.5,5.5 L6,5.5 Z M3.5,4 L5,4 L5,5.5 L3.5,5.5 L3.5,4 L5,4 L5,5.5 L3.5,5.5 L3.5,4 Z M3.5,4 L5,4 L5,5.5 L3.5,5.5 L3.5,4 Z M3.5,7 L5,7 L5,8.5 L3.5,8.5 L3.5,7 L5,7 L5,8.5 L3.5,8.5 L3.5,7 Z M3.5,7 L5,7 L5,8.5 L3.5,8.5 L3.5,7 Z M3.5,10 L5,10 L5,11.5 L3.5,11.5 L3.5,10 L5,10 L5,11.5 L3.5,11.5 L3.5,10 Z M6,8.5 L6,7 L12.5,7 L12.5,8.5 L6,8.5 Z M6,11.5 L6,10 L12.5,10 L12.5,11.5 L6,11.5 Z" id="Mask"></path>
        </g>
    </g>
</svg>