<?xml version="1.0" encoding="UTF-8"?>
<svg width="123px" height="26px" viewBox="0 0 123 26" version="1.1" xmlns="http://www.w3.org/2000/svg" xmlns:xlink="http://www.w3.org/1999/xlink">
    <!-- Generator: Sketch 63.1 (92452) - https://sketch.com -->
    <title>编组 8备份 7</title>
    <desc>Created with Sketch.</desc>
    <defs>
        <linearGradient x1="20.4142012%" y1="86.5285981%" x2="63.9606063%" y2="13.7278546%" id="linearGradient-1">
            <stop stop-color="#5D91E9" offset="0%"></stop>
            <stop stop-color="#0017A6" offset="100%"></stop>
        </linearGradient>
        <linearGradient x1="50.3236213%" y1="50.2994275%" x2="100%" y2="100%" id="linearGradient-2">
            <stop stop-color="#6494FF" offset="0%"></stop>
            <stop stop-color="#ACBEFF" offset="100%"></stop>
        </linearGradient>
    </defs>
    <g id="页面-1" stroke="none" stroke-width="1" fill="none" fill-rule="evenodd">
        <g id="layout2020-07-17" transform="translate(-129.000000, -257.000000)">
            <g id="编组-8备份-7" transform="translate(129.000000, 257.000000)">
                <g id="编组-6" transform="translate(28.000000, 1.000000)" fill="#FFFFFF" fill-rule="nonzero" stroke="#FFFFFF" stroke-width="0.2">
                    <path d="M1.18671096,0.507626602 L3.37275748,2.70866382 L2.56079734,3.89841367 L0.374750831,1.69737645 L1.18671096,0.507626602 Z M1.93621262,11.3938377 L0.999335548,13 L0,11.9887126 L0.936877076,10.2040879 L0.936877076,5.74252593 L0.249833887,5.74252593 L0.249833887,4.49328859 L2.49833887,4.49328859 L2.49833887,9.96613789 L4.24717608,11.5128127 L13.8657807,11.5128127 L13.8657807,12.8215375 L3.62259136,12.8215375 L1.93621262,11.3938377 Z M9.11893688,6.21842587 L5.12159468,10.3230628 L4.24717608,9.31177547 L8.36943522,5.02867602 L8.36943522,3.71995119 L4.49700997,3.71995119 L4.49700997,2.41122636 L8.36943522,2.41122636 L8.36943522,0 L9.93089701,0.507626602 L9.93089701,2.41122636 L13.9282392,2.41122636 L13.9282392,3.71995119 L9.93089701,3.71995119 L9.93089701,5.02867602 L14.1156146,9.31177547 L13.1787375,10.3230628 L9.11893688,6.21842587 Z M26.607309,12.8215375 L26.607309,9.37126297 L28.1063123,9.37126297 L28.1063123,11.4533252 L29.8551495,11.4533252 L29.8551495,12.8215375 L26.607309,12.8215375 Z M26.8571429,8.65741306 L23.4843854,12.8215375 L21.9853821,12.643075 L25.3581395,8.3004881 L25.3581395,3.54148871 L26.8571429,3.54148871 L26.8571429,8.65741306 Z M22.5475083,0.686089079 L29.6677741,0.686089079 L29.6677741,8.71690055 L28.1687708,8.71690055 L28.1687708,1.99481391 L24.0465116,1.99481391 L24.0465116,8.59792556 L22.5475083,8.59792556 L22.5475083,0.686089079 Z M17.613289,3.12507627 L21.2983389,11.9887126 L20.1740864,12.8215375 L16.4890365,4.01738865 L17.613289,3.12507627 Z M16.2392027,12.0482001 L19.7993355,3.24405125 L19.7993355,2.17327639 L16.3641196,2.17327639 L16.3641196,0.864551556 L21.4232558,0.864551556 L21.4232558,3.00610128 L17.3009967,12.8215375 L16.2392027,12.0482001 Z M33.6026578,3.00610128 L32.6033223,2.0543014 L33.227907,0.567114094 L34.8025111,0.567114094 L33.6026578,3.00610128 Z M44.1581395,4.96918853 L44.1581395,2.17327639 L41.8471761,2.17327639 L41.8471761,4.96918853 L44.1581395,4.96918853 Z M43.8458472,11.5128127 L43.8458472,10.6205003 L34.4770764,10.6205003 L34.4770764,11.5128127 L43.8458472,11.5128127 Z M34.4770764,8.35997559 L34.4770764,9.31177547 L43.8458472,9.31177547 L43.8458472,8.35997559 L34.4770764,8.35997559 Z M33.6651163,2.0543014 L33.6651163,0.864551556 L39.2239203,0.864551556 L39.2239203,2.0543014 L36.8504983,2.0543014 L36.8504983,3.06558877 L39.4737542,3.06558877 L39.4737542,4.19585113 L36.8504983,4.19585113 L36.8504983,4.61226358 L39.5986711,5.80201342 L38.5368771,6.57535082 L36.1009967,5.50457596 L33.3528239,6.63483832 L32.4784053,5.80201342 L35.2890365,4.61226358 L35.2890365,4.19585113 L32.6033223,4.19585113 L32.6033223,3.06558877 L35.2890365,3.06558877 L35.2890365,2.0543014 L33.6651163,2.0543014 Z M40.2857143,6.27791336 L40.2857143,0.864551556 L45.7196013,0.864551556 L45.7196013,6.27791336 L40.2857143,6.27791336 Z M32.9156146,12.8215375 L32.9156146,7.11073826 L45.407309,7.11073826 L45.407309,12.8215375 L32.9156146,12.8215375 Z M61.7089701,11.5723002 L61.7089701,12.8215375 L56.4,12.8215375 L56.4,7.05125076 L57.8990033,7.55887736 L57.8990033,9.0738255 L60.89701,7.61836486 L61.8963455,8.51067724 L57.8990033,10.6205003 L57.8990033,11.5723002 L61.7089701,11.5723002 Z M50.0292359,6.81330079 L53.3395349,6.81330079 L53.3395349,5.74252593 L50.0292359,5.74252593 L50.0292359,6.81330079 Z M50.0292359,9.19280049 L53.3395349,9.19280049 L53.3395349,8.06253813 L50.0292359,8.06253813 L50.0292359,9.19280049 Z M54.4637874,0.983526541 L55.4006645,3.36302624 L48.1554817,3.36302624 L49.7169435,0.507626602 L51.2159468,0.805064063 L50.5289037,2.1137889 L53.2770764,2.1137889 L53.0272425,1.34045149 L54.4637874,0.983526541 Z M61.7089701,5.08816351 L61.7089701,6.33740085 L56.4,6.33740085 L56.4,0.567114094 L57.8990033,1.0747407 L57.8990033,2.58968883 L60.8345515,1.13422819 L61.8963455,2.02654057 L57.8990033,4.13636364 L57.8990033,5.08816351 L61.7089701,5.08816351 Z M53.3395349,10.5015253 L50.0292359,10.5015253 L50.0292359,12.8215375 L48.5302326,12.8215375 L48.5302326,4.49328859 L54.9009967,4.49328859 L54.9009967,12.8215375 L52.6524917,12.8215375 L52.6524917,11.5128127 L53.3395349,11.5128127 L53.3395349,10.5015253 Z M65.8936877,5.86150092 L67.2053156,5.02867602 L78.1355482,12.0482001 L76.7614618,12.8215375 L65.8936877,5.86150092 Z M75.3249169,4.79072605 L75.3249169,2.8276388 L64.5196013,2.8276388 L64.5196013,1.45942648 L70.5156146,1.45942648 L70.2033223,0.507626602 L71.889701,0.269676632 L72.2019934,1.45942648 L77.8857143,1.45942648 L77.8857143,2.8276388 L76.9488372,2.8276388 L76.9488372,5.38560098 L65.4564784,12.881025 L64.207309,12.1076876 L75.3249169,4.79072605 Z M80.3215947,12.4646126 L82.882392,2.8276388 L84.4438538,2.8276388 L81.820598,12.8215375 L80.3215947,12.4646126 Z M89.8777409,2.8276388 L91.4392027,2.8276388 L94,12.4646126 L92.5009967,12.8215375 L89.8777409,2.8276388 Z M87.8790698,2.8276388 L87.8790698,9.37126297 L90.689701,9.37126297 L90.689701,10.6799878 L87.8790698,10.6799878 L87.8790698,12.8215375 L86.3800664,12.8215375 L86.3800664,10.6799878 L83.5069767,10.6799878 L84.0399557,9.37126297 L86.3800664,9.37126297 L86.3800664,2.8276388 L80.5714286,2.8276388 L80.5714286,1.57840146 L86.3800664,1.57840146 L86.3800664,0 L87.8790698,0.507626602 L87.8790698,1.57840146 L93.6877076,1.57840146 L93.6877076,2.8276388 L87.8790698,2.8276388 Z" id="达观智能文本"></path>
                    <path d="M2.87865795,23.1754839 C3.10658036,23.1754839 3.29388012,23.1483874 3.44056285,23.0941935 C3.70233512,22.9935479 3.91671436,22.8000014 4.08370701,22.5135484 C4.21684981,22.2838698 4.31275631,21.9896792 4.3714294,21.6309677 C4.40527927,21.4167731 4.42220394,21.2180654 4.42220394,21.0348387 C4.42220394,20.3303191 4.29978211,19.7832278 4.05493478,19.3935484 C3.81008744,19.003869 3.41574246,18.8090323 2.87188801,18.8090323 L1.67699386,18.8090323 L1.67699386,23.1754839 L2.87865795,23.1754839 Z M1,18.1470968 L3.01405672,18.1470968 C3.69782394,18.1470968 4.22813049,18.4245134 4.60499228,18.9793548 C4.94123425,19.4800025 5.10935271,20.1212864 5.10935271,20.9032258 C5.10935271,21.5070998 5.01006127,22.0529008 4.81147541,22.5406452 C4.4616935,23.402585 3.86030331,23.8335484 3.00728678,23.8335484 L1,23.8335484 L1,18.1470968 Z M11.0878334,21.5032258 L10.3329852,18.9909677 L9.5307475,21.5032258 L11.0878334,21.5032258 Z M9.98094842,18.1470968 L10.7425665,18.1470968 L12.5467551,23.8335484 L11.8088318,23.8335484 L11.3044714,22.1303226 L9.33780426,22.1303226 L8.79959414,23.8335484 L8.10906041,23.8335484 L9.98094842,18.1470968 Z M18.8264981,18.1470968 L18.8264981,18.8245161 L17.1509383,18.8245161 L17.1509383,23.8335484 L16.4671745,23.8335484 L16.4671745,18.8245161 L14.7916147,18.8245161 L14.7916147,18.1470968 L18.8264981,18.1470968 Z M24.0433606,21.5032258 L23.2885125,18.9909677 L22.4862748,21.5032258 L24.0433606,21.5032258 Z M22.9364757,18.1470968 L23.6980938,18.1470968 L25.5022824,23.8335484 L24.7643591,23.8335484 L24.2599987,22.1303226 L22.2933315,22.1303226 L21.7551214,23.8335484 L21.0645877,23.8335484 L22.9364757,18.1470968 Z M30.824079,18 C31.2912071,18 31.6951428,18.1032248 32.035898,18.3096774 C32.530106,18.6064531 32.8324936,19.1264479 32.9430698,19.8696774 L32.2762309,19.8696774 C32.1949912,19.4541915 32.0268727,19.1516139 31.7718704,18.9619355 C31.5168681,18.7722571 31.1952993,18.6774194 30.8071542,18.6774194 C30.3467961,18.6774194 29.959221,18.8748367 29.6444172,19.2696774 C29.3296135,19.6645181 29.172214,20.2528993 29.172214,21.0348387 C29.172214,21.7109711 29.3019699,22.2612882 29.5614855,22.6858065 C29.8210011,23.1103247 30.244118,23.3225806 30.830849,23.3225806 C31.2799238,23.3225806 31.6517025,23.1735499 31.9461963,22.8754839 C32.2406901,22.5774179 32.3913198,22.0954872 32.3980897,21.4296774 L30.8410039,21.4296774 L30.8410039,20.7909677 L33.0243091,20.7909677 L33.0243091,23.8335484 L32.591033,23.8335484 L32.4285545,23.1019355 C32.2006321,23.3883885 31.9986643,23.5870962 31.822645,23.6980645 C31.5270228,23.8890332 31.151295,23.9845161 30.6954502,23.9845161 C30.1064626,23.9845161 29.5998506,23.7664538 29.175599,23.3303226 C28.7129842,22.7832231 28.4816803,22.0322628 28.4816803,21.0774194 C28.4816803,20.1251565 28.7073427,19.3677447 29.1586741,18.8051613 C29.5874391,18.2683844 30.1425685,18 30.824079,18 Z M38.9384753,20.7522581 C39.2544074,20.7522581 39.5043284,20.6800007 39.688246,20.5354839 C39.8721636,20.390967 39.964121,20.1303245 39.964121,19.7535484 C39.964121,19.3483851 39.8354935,19.0722588 39.5782345,18.9251613 C39.4405784,18.8477415 39.2566636,18.8090323 39.0264845,18.8090323 L37.3813894,18.8090323 L37.3813894,20.7522581 L38.9384753,20.7522581 Z M36.7077806,18.1470968 L39.0095597,18.1470968 C39.3886781,18.1470968 39.7012205,18.2103219 39.9471962,18.3367742 C40.4143243,18.5793561 40.6478848,19.0270935 40.6478848,19.68 C40.6478848,20.0206469 40.5863918,20.2993538 40.463404,20.516129 C40.3404161,20.7329043 40.1683486,20.9070961 39.9471962,21.0387097 C40.1412687,21.1290327 40.2873851,21.2477412 40.3855497,21.3948387 C40.4837143,21.5419362 40.5384374,21.7806435 40.5497207,22.1109677 L40.5734155,22.8735484 L40.5831943,23.0718283 C40.5917193,23.1916848 40.6042562,23.2868814 40.620805,23.3574194 C40.6614249,23.5380654 40.7336368,23.6541933 40.8374431,23.7058065 L40.8374431,23.8335484 L40.0115106,23.8335484 C39.988944,23.7845159 39.970891,23.7212907 39.9573511,23.643871 C39.9457454,23.5775112 39.9357978,23.4580652 39.9275081,23.2855303 L39.8828817,22.2464516 C39.8670851,21.8748369 39.7463558,21.6258071 39.52069,21.4993548 C39.3920606,21.4296771 39.1900927,21.3948387 38.9147805,21.3948387 L37.3813894,21.3948387 L37.3813894,23.8335484 L36.7077806,23.8335484 L36.7077806,18.1470968 Z M46.7448394,21.5032258 L45.9899912,18.9909677 L45.1877535,21.5032258 L46.7448394,21.5032258 Z M45.6379544,18.1470968 L46.3995725,18.1470968 L48.2037612,23.8335484 L47.4658378,23.8335484 L46.9614774,22.1303226 L44.9948103,22.1303226 L44.4566002,23.8335484 L43.7660664,23.8335484 L45.6379544,18.1470968 Z M51.3761023,18.1470968 L52.1715701,18.1470968 L54.6832173,22.7535484 L54.6832173,18.1470968 L55.3229765,18.1470968 L55.3229765,23.8335484 L54.5681283,23.8335484 L52.0192464,19.2309677 L52.0192464,23.8335484 L51.3761023,23.8335484 L51.3761023,18.1470968 Z M60.8512562,23.1754839 C61.0791786,23.1754839 61.2664784,23.1483874 61.4131611,23.0941935 C61.6749334,22.9935479 61.8893126,22.8000014 62.0563053,22.5135484 C62.1894481,22.2838698 62.2853546,21.9896792 62.3440277,21.6309677 C62.3778775,21.4167731 62.3948022,21.2180654 62.3948022,21.0348387 C62.3948022,20.3303191 62.2723804,19.7832278 62.027533,19.3935484 C61.7826857,19.003869 61.3883407,18.8090323 60.8444863,18.8090323 L59.6495921,18.8090323 L59.6495921,23.1754839 L60.8512562,23.1754839 Z M58.9725983,18.1470968 L60.986655,18.1470968 C61.6704222,18.1470968 62.2007288,18.4245134 62.5775906,18.9793548 C62.9138325,19.4800025 63.081951,20.1212864 63.081951,20.9032258 C63.081951,21.5070998 62.9826595,22.0529008 62.7840737,22.5406452 C62.4342918,23.402585 61.8329016,23.8335484 60.9798851,23.8335484 L58.9725983,23.8335484 L58.9725983,18.1470968 Z M71.1461976,18.1470968 L71.8265765,18.1470968 L71.8265765,23.8335484 L71.1461976,23.8335484 L71.1461976,18.1470968 Z M77.3887059,23.1754839 C77.6166283,23.1754839 77.8039281,23.1483874 77.9506108,23.0941935 C78.2123831,22.9935479 78.4267623,22.8000014 78.593755,22.5135484 C78.7268978,22.2838698 78.8228043,21.9896792 78.8814774,21.6309677 C78.9153272,21.4167731 78.9322519,21.2180654 78.9322519,21.0348387 C78.9322519,20.3303191 78.8098301,19.7832278 78.5649827,19.3935484 C78.3201354,19.003869 77.9257904,18.8090323 77.381936,18.8090323 L76.1870418,18.8090323 L76.1870418,23.1754839 L77.3887059,23.1754839 Z M75.510048,18.1470968 L77.5241047,18.1470968 C78.2078719,18.1470968 78.7381784,18.4245134 79.1150402,18.9793548 C79.4512822,19.4800025 79.6194007,20.1212864 79.6194007,20.9032258 C79.6194007,21.5070998 79.5201092,22.0529008 79.3215234,22.5406452 C78.9717415,23.402585 78.3703513,23.8335484 77.5173347,23.8335484 L75.510048,23.8335484 L75.510048,18.1470968 Z M83.1099289,18.1470968 L85.3473936,18.1470968 C85.7896985,18.1470968 86.146245,18.289676 86.4170439,18.5748387 C86.6878428,18.8600014 86.8232402,19.2606426 86.8232402,19.7767742 C86.8232402,20.2206474 86.7025108,20.6070951 86.4610485,20.936129 C86.2195861,21.2651629 85.8483716,21.4296774 85.3473936,21.4296774 L83.7835378,21.4296774 L83.7835378,23.8335484 L83.1099289,23.8335484 L83.1099289,18.1470968 Z M86.1428614,19.7806452 C86.1428614,19.3625786 86.007464,19.0787104 85.7366651,18.9290323 C85.5877257,18.8490319 85.3835012,18.8090323 85.1239856,18.8090323 L83.7835378,18.8090323 L83.7835378,20.7793548 L85.1239856,20.7793548 C85.4263777,20.7793548 85.6717855,20.7058072 85.8602164,20.5587097 C86.0486473,20.4116122 86.1428614,20.1522599 86.1428614,19.7806452 Z M90.6691902,21.9987097 C90.6849868,22.3212919 90.7515572,22.5832248 90.8689034,22.7845161 C91.0923125,23.1612922 91.4860933,23.3496774 92.0502577,23.3496774 C92.3030033,23.3496774 92.5331789,23.3083875 92.7407914,23.2258065 C93.1424765,23.0658057 93.343316,22.7793569 93.343316,22.3664516 C93.343316,22.0567726 93.2586926,21.8361297 93.0894433,21.7045161 C92.9179373,21.5754832 92.6493991,21.4632263 92.2838206,21.3677419 L91.6102117,21.1935484 C91.1701635,21.0799994 90.8587494,20.9548394 90.6759602,20.8180645 C90.3600281,20.580644 90.2020645,20.2258088 90.2020645,19.7535484 C90.2020645,19.2425781 90.3566432,18.8232274 90.6658053,18.4954839 C90.9749673,18.1677403 91.4127523,18.003871 91.9791733,18.003871 C92.5004612,18.003871 92.9433236,18.1477405 93.3077738,18.4354839 C93.672224,18.7232272 93.8544463,19.1832226 93.8544463,19.8154839 L93.2214571,19.8154839 C93.1876072,19.5109662 93.1153952,19.2774202 93.004819,19.1148387 C92.7994632,18.818063 92.4508149,18.6696774 91.9588635,18.6696774 C91.5616918,18.6696774 91.2762289,18.7651603 91.1024663,18.956129 C90.9287037,19.1470977 90.8418237,19.369031 90.8418237,19.6219355 C90.8418237,19.9006466 90.9433717,20.1045155 91.1464709,20.2335484 C91.2796137,20.3161294 91.5808729,20.4193542 92.0502577,20.5432258 L92.7475614,20.7251613 C93.0838033,20.8129037 93.343315,20.9329025 93.5261043,21.0851613 C93.8420363,21.3509691 94,21.7367717 94,22.2425806 C94,22.8722612 93.7997247,23.3225793 93.399168,23.5935484 C92.9986113,23.8645175 92.5331826,24 92.0028681,24 C91.384544,24 90.9004982,23.8193566 90.5507163,23.4580645 C90.2009344,23.099353 90.029431,22.6129063 90.036201,21.9987097 L90.6691902,21.9987097 Z" id="DATAGRANDIDPS"></path>
                </g>
                <g id="编组备份-7">
                    <path d="M8.42620943,26 C10.4347826,26 12.173913,25.6601307 13.6436007,24.9803922 C15.1132884,24.3006536 16.3135334,23.3720822 17.2443356,22.1946779 C18.1751378,21.0172736 18.8671157,19.6395892 19.3202694,18.0616246 C19.7734231,16.4836601 20,14.7964519 20,13 C20,11.2035481 19.7734231,9.51633987 19.3202694,7.93837535 C18.8671157,6.36041083 18.1751378,4.98272642 17.2443356,3.80532213 C16.3135334,2.62791783 15.1132884,1.86437425 13.6436007,1.18463569 C12.173913,0.504897129 9.88924082,0 8.42620943,0 L0,0 L0,26 L8.42620943,26 Z M4.59277404,22.2857143 L4.59277404,3.71428571 L6.6625842,3.71428571 C8.45070423,3.71428571 9.91426822,3.95098039 11.0532762,4.42436975 C12.1922841,4.8977591 13.0863442,5.55322129 13.7354562,6.3907563 C14.3845683,7.22829132 14.8254746,8.21148459 15.0581751,9.34033613 C15.2908757,10.4691877 15.407226,11.6890756 15.407226,13 C15.407226,14.3109244 15.2908757,15.5308123 15.0581751,16.6596639 C14.8254746,17.7885154 14.3845683,18.7717087 13.7354562,19.6092437 C13.0863442,20.4467787 12.1922841,21.1022409 11.0532762,21.5756303 C9.91426822,22.0490196 8.45070423,22.2857143 6.6625842,22.2857143 L4.59277404,22.2857143 Z" id="D" fill="url(#linearGradient-1)" fill-rule="nonzero"></path>
                    <polygon id="矩形" fill="url(#linearGradient-2)" points="8 0 8 8 0 8"></polygon>
                </g>
            </g>
        </g>
    </g>
</svg>