<?xml version="1.0" encoding="UTF-8"?>
<svg width="20px" height="26px" viewBox="0 0 20 26" version="1.1" xmlns="http://www.w3.org/2000/svg" xmlns:xlink="http://www.w3.org/1999/xlink">
    <!-- Generator: Sketch 63.1 (92452) - https://sketch.com -->
    <title>编组 8备份 8</title>
    <desc>Created with Sketch.</desc>
    <defs>
        <linearGradient x1="20.4142012%" y1="86.5285981%" x2="63.9606063%" y2="13.7278546%" id="linearGradient-1">
            <stop stop-color="#5D91E9" offset="0%"></stop>
            <stop stop-color="#0017A6" offset="100%"></stop>
        </linearGradient>
        <linearGradient x1="50.3236213%" y1="50.2994275%" x2="100%" y2="100%" id="linearGradient-2">
            <stop stop-color="#6494FF" offset="0%"></stop>
            <stop stop-color="#ACBEFF" offset="100%"></stop>
        </linearGradient>
    </defs>
    <g id="页面-1" stroke="none" stroke-width="1" fill="none" fill-rule="evenodd">
        <g id="layout2020-07-17" transform="translate(-800.000000, -257.000000)">
            <g id="编组-8备份-8" transform="translate(800.000000, 257.000000)">
                <g id="编组备份-7">
                    <path d="M8.42620943,26 C10.4347826,26 12.173913,25.6601307 13.6436007,24.9803922 C15.1132884,24.3006536 16.3135334,23.3720822 17.2443356,22.1946779 C18.1751378,21.0172736 18.8671157,19.6395892 19.3202694,18.0616246 C19.7734231,16.4836601 20,14.7964519 20,13 C20,11.2035481 19.7734231,9.51633987 19.3202694,7.93837535 C18.8671157,6.36041083 18.1751378,4.98272642 17.2443356,3.80532213 C16.3135334,2.62791783 15.1132884,1.86437425 13.6436007,1.18463569 C12.173913,0.504897129 9.88924082,0 8.42620943,0 L0,0 L0,26 L8.42620943,26 Z M4.59277404,22.2857143 L4.59277404,3.71428571 L6.6625842,3.71428571 C8.45070423,3.71428571 9.91426822,3.95098039 11.0532762,4.42436975 C12.1922841,4.8977591 13.0863442,5.55322129 13.7354562,6.3907563 C14.3845683,7.22829132 14.8254746,8.21148459 15.0581751,9.34033613 C15.2908757,10.4691877 15.407226,11.6890756 15.407226,13 C15.407226,14.3109244 15.2908757,15.5308123 15.0581751,16.6596639 C14.8254746,17.7885154 14.3845683,18.7717087 13.7354562,19.6092437 C13.0863442,20.4467787 12.1922841,21.1022409 11.0532762,21.5756303 C9.91426822,22.0490196 8.45070423,22.2857143 6.6625842,22.2857143 L4.59277404,22.2857143 Z" id="D" fill="url(#linearGradient-1)" fill-rule="nonzero"></path>
                    <polygon id="矩形" fill="url(#linearGradient-2)" points="8 0 8 8 0 8"></polygon>
                </g>
            </g>
        </g>
    </g>
</svg>