<?xml version="1.0" encoding="UTF-8"?>
<svg width="32px" height="32px" viewBox="0 0 32 32" version="1.1" xmlns="http://www.w3.org/2000/svg" xmlns:xlink="http://www.w3.org/1999/xlink" style="background: #FFFFFF;">
    <title>3.数据看板导航/指标数据/数据/图标/ICON3</title>
    <defs>
        <linearGradient x1="3.97266497%" y1="-18.2156983%" x2="85.5201236%" y2="100%" id="linearGradient-1">
            <stop stop-color="#52CCA3" offset="0%"></stop>
            <stop stop-color="#05A871" offset="100%"></stop>
        </linearGradient>
        <linearGradient x1="12.5179684%" y1="-18.2156983%" x2="78.925559%" y2="100%" id="linearGradient-2">
            <stop stop-color="#52CCA3" offset="0%"></stop>
            <stop stop-color="#05A871" offset="100%"></stop>
        </linearGradient>
    </defs>
    <g id="3.数据看板导航/指标数据/数据/图标/ICON3" stroke="none" stroke-width="1" fill="none" fill-rule="evenodd">
        <rect fill="#FFFFFF" x="0" y="0" width="32" height="32"></rect>
        <path d="M12.0201594,14.3676726 C12.0201594,14.8592667 12.4186751,15.2577825 12.9102693,15.2577825 C13.4018634,15.2577825 13.8003792,14.8592667 13.8003792,14.3676726 C13.8003792,13.8760785 13.4018634,13.4775627 12.9102693,13.4775627 C12.4186751,13.4775627 12.0201594,13.8760785 12.0201594,14.3676726 L12.0201594,14.3676726 Z M18.5476319,14.3676726 C18.5476319,14.8592667 18.9461477,15.2577825 19.4377418,15.2577825 C19.9293359,15.2577825 20.3278517,14.8592667 20.3278517,14.3676726 C20.3278517,13.8760785 19.9293359,13.4775627 19.4377418,13.4775627 C18.9461477,13.4775627 18.5476319,13.8760785 18.5476319,14.3676726 L18.5476319,14.3676726 Z M16.1740055,7.74748032 C11.5862308,7.74748032 7.86631322,11.4673979 7.86631322,16.0551726 C7.86631322,20.6429473 11.5862308,24.3628649 16.1740055,24.3628649 C20.7617803,24.3628649 24.4816978,20.6429473 24.4816978,16.0551726 C24.4816978,11.4673979 20.7617803,7.74748032 16.1740055,7.74748032 Z M21.051066,20.9322331 C20.4168627,21.5664364 19.6788132,22.0634144 18.857316,22.4120408 C18.0098572,22.7717935 17.1067665,22.9535243 16.1740055,22.9535243 C15.2412445,22.9535243 14.3381539,22.7717935 13.4888407,22.4120408 C12.6673434,22.0652688 11.929294,21.5664364 11.2950907,20.9322331 C10.6608874,20.2980298 10.1639094,19.5599803 9.815283,18.7384831 C9.45738465,17.8910243 9.27565388,16.9879336 9.27565388,16.0551726 C9.27565388,15.1224116 9.45738465,14.219321 9.8171374,13.3700078 C10.1639094,12.5485105 10.6627418,11.8104611 11.2969451,11.1762578 C11.9311484,10.5420545 12.6691978,10.0450765 13.4906951,9.6964501 C14.3381539,9.33855175 15.2412445,9.15682098 16.1740055,9.15682098 C17.1067665,9.15682098 18.0098572,9.33855175 18.8591704,9.69830449 C19.6806676,10.0450765 20.4187171,10.5439089 21.0529204,11.1781122 C21.6871237,11.8123155 22.1841017,12.5503649 22.5327281,13.3718622 C22.8906264,14.219321 23.0723572,15.1224116 23.0723572,16.0551726 C23.0723572,16.9879336 22.8906264,17.8910243 22.5308737,18.7403375 C22.1841017,19.5618347 21.6852693,20.2998842 21.051066,20.9322331 Z M18.9926868,16.4445957 L18.1007226,16.4445957 C18.0228379,16.4445957 17.9560797,16.5039364 17.9505165,16.581821 C17.8800495,17.4997468 17.1104753,18.2248155 16.1740055,18.2248155 C15.2375357,18.2248155 14.4661072,17.4997468 14.3974945,16.581821 C14.3919314,16.5039364 14.3251731,16.4445957 14.2472885,16.4445957 L13.3553242,16.4445957 C13.270022,16.4445957 13.2032638,16.5150627 13.2069726,16.6003649 C13.288566,18.1636204 14.5884973,19.4116287 16.1740055,19.4116287 C17.7595138,19.4116287 19.0594451,18.1636204 19.1410385,16.6003649 C19.1447473,16.5150627 19.077989,16.4445957 18.9926868,16.4445957 Z" id="形状" fill="#FFFFFF" fill-rule="nonzero"></path>
        <circle id="椭圆形" fill="url(#linearGradient-1)" opacity="0.15" cx="16" cy="16" r="16"></circle>
        <path d="M21.9307213,12.289158 L20.7469865,10.897592 L19.7349385,9.77711016 C19.3087836,9.28314757 18.6885288,8.99941401 18.0361435,9.00000091 L11.2499997,9.00000091 C10.0073592,9.00000091 9,10.007361 9,11.2500015 L9,21.7500003 C9,22.9926408 10.0073592,24.0000009 11.2499997,24.0000009 L20.2861432,24.0000009 C21.5287837,24.0000009 22.5361429,22.9926408 22.5361429,21.7500003 L22.5361429,13.7801217 C22.5276203,13.2249651 22.311649,12.6930957 21.9307213,12.289158 L21.9307213,12.289158 Z M18.2078302,16.9698804 L15.7771076,19.96988 C15.6389443,20.1438822 15.4299903,20.2467008 15.2078306,20.2500005 C14.9874694,20.2536211 14.7764149,20.1612847 14.6295174,19.9969884 L13.3102404,18.4969886 C13.0877812,18.1857177 13.1352783,17.7568944 13.4204633,17.5018508 C13.7056484,17.2468073 14.1370938,17.247308 14.4216861,17.5030128 L15.1536137,18.334338 L17.0421677,16.0301214 C17.1801268,15.7626401 17.4646178,15.6035334 17.7647408,15.6260096 C18.0648638,15.6484857 18.3224835,15.8481909 18.419064,16.1332368 C18.5156445,16.4182828 18.4324776,16.7334547 18.2078302,16.9337358 L18.2078302,16.9698804 Z M18.7499988,13.6536157 C18.2509464,13.6536157 17.8463845,13.2490538 17.8463845,12.7500014 L17.8463845,10.0391583 L21.2349383,13.6536157 L18.7499988,13.6536157 Z" id="形状" fill="url(#linearGradient-2)" fill-rule="nonzero"></path>
    </g>
</svg>