<?xml version="1.0" encoding="UTF-8"?>
<svg width="32px" height="32px" viewBox="0 0 32 32" version="1.1" xmlns="http://www.w3.org/2000/svg" xmlns:xlink="http://www.w3.org/1999/xlink" style="background: #FFFFFF;">
    <title>3.数据看板导航/指标数据/数据/图标/ICON4</title>
    <defs>
        <linearGradient x1="-5.29806635%" y1="-23.66982%" x2="50%" y2="100%" id="linearGradient-1">
            <stop stop-color="#FAC400" offset="0%"></stop>
            <stop stop-color="#F39200" offset="100%"></stop>
        </linearGradient>
        <circle id="path-2" cx="16" cy="16" r="16"></circle>
        <filter x="-18.8%" y="-18.8%" width="137.5%" height="137.5%" filterUnits="objectBoundingBox" id="filter-3">
            <feOffset dx="0" dy="0" in="SourceAlpha" result="shadowOffsetOuter1"></feOffset>
            <feGaussianBlur stdDeviation="2" in="shadowOffsetOuter1" result="shadowBlurOuter1"></feGaussianBlur>
            <feColorMatrix values="0 0 0 0 0.823529412   0 0 0 0 0.831372549   0 0 0 0 0.870588235  0 0 0 0.3 0" type="matrix" in="shadowBlurOuter1"></feColorMatrix>
        </filter>
        <linearGradient x1="2.88212098%" y1="-23.66982%" x2="50%" y2="100%" id="linearGradient-4">
            <stop stop-color="#FAC400" offset="0%"></stop>
            <stop stop-color="#F39200" offset="100%"></stop>
        </linearGradient>
        <path d="M21.1111111,8.2962963 C22.2156806,8.2962963 23.1111111,9.1917268 23.1111111,10.2962963 L23.1111111,21.7037037 C23.1111111,22.8082732 22.2156806,23.7037037 21.1111111,23.7037037 L10.8888889,23.7037037 C9.78431939,23.7037037 8.88888889,22.8082732 8.88888889,21.7037037 L8.88888889,10.2962963 C8.88888889,9.1917268 9.78431939,8.2962963 10.8888889,8.2962963 L21.1111111,8.2962963 Z M11.8518519,18.962963 C11.524572,18.962963 11.2592593,19.2282757 11.2592593,19.5555556 C11.2592593,19.8828354 11.524572,20.1481481 11.8518519,20.1481481 C12.1791317,20.1481481 12.4444444,19.8828354 12.4444444,19.5555556 C12.4444444,19.2282757 12.1791317,18.962963 11.8518519,18.962963 Z M20.1481481,18.962963 L14.2222222,18.962963 C13.8949424,18.962963 13.6296296,19.2282757 13.6296296,19.5555556 C13.6296296,19.8828354 13.8949424,20.1481481 14.2222222,20.1481481 L14.2222222,20.1481481 L20.1481481,20.1481481 C20.475428,20.1481481 20.7407407,19.8828354 20.7407407,19.5555556 C20.7407407,19.2282757 20.475428,18.962963 20.1481481,18.962963 L20.1481481,18.962963 Z M11.8518519,15.4074074 C11.524572,15.4074074 11.2592593,15.6727201 11.2592593,16 C11.2592593,16.3272799 11.524572,16.5925926 11.8518519,16.5925926 C12.1791317,16.5925926 12.4444444,16.3272799 12.4444444,16 C12.4444444,15.6727201 12.1791317,15.4074074 11.8518519,15.4074074 Z M20.1481481,15.4074074 L14.2222222,15.4074074 C13.8949424,15.4074074 13.6296296,15.6727201 13.6296296,16 C13.6296296,16.3272799 13.8949424,16.5925926 14.2222222,16.5925926 L14.2222222,16.5925926 L20.1481481,16.5925926 C20.475428,16.5925926 20.7407407,16.3272799 20.7407407,16 C20.7407407,15.6727201 20.475428,15.4074074 20.1481481,15.4074074 L20.1481481,15.4074074 Z M11.8518519,11.8518519 C11.524572,11.8518519 11.2592593,12.1171646 11.2592593,12.4444444 C11.2592593,12.7717243 11.524572,13.037037 11.8518519,13.037037 C12.1791317,13.037037 12.4444444,12.7717243 12.4444444,12.4444444 C12.4444444,12.1171646 12.1791317,11.8518519 11.8518519,11.8518519 Z M20.1481481,11.8518519 L14.2222222,11.8518519 C13.8949424,11.8518519 13.6296296,12.1171646 13.6296296,12.4444444 C13.6296296,12.7717243 13.8949424,13.037037 14.2222222,13.037037 L14.2222222,13.037037 L20.1481481,13.037037 C20.475428,13.037037 20.7407407,12.7717243 20.7407407,12.4444444 C20.7407407,12.1171646 20.475428,11.8518519 20.1481481,11.8518519 L20.1481481,11.8518519 Z" id="path-5"></path>
        <filter x="-21.1%" y="-19.5%" width="142.2%" height="138.9%" filterUnits="objectBoundingBox" id="filter-6">
            <feOffset dx="0" dy="0" in="SourceAlpha" result="shadowOffsetOuter1"></feOffset>
            <feGaussianBlur stdDeviation="1" in="shadowOffsetOuter1" result="shadowBlurOuter1"></feGaussianBlur>
            <feColorMatrix values="0 0 0 0 0.823529412   0 0 0 0 0.831372549   0 0 0 0 0.870588235  0 0 0 0.3 0" type="matrix" in="shadowBlurOuter1"></feColorMatrix>
        </filter>
    </defs>
    <g id="3.数据看板导航/指标数据/数据/图标/ICON4" stroke="none" stroke-width="1" fill="none" fill-rule="evenodd">
        <rect fill="#FFFFFF" x="0" y="0" width="32" height="32"></rect>
        <g id="renwu-1">
            <g id="椭圆形" opacity="0.15">
                <use fill="black" fill-opacity="1" filter="url(#filter-3)" xlink:href="#path-2"></use>
                <use fill="url(#linearGradient-1)" fill-rule="evenodd" xlink:href="#path-2"></use>
            </g>
            <g id="合并形状">
                <use fill="black" fill-opacity="1" filter="url(#filter-6)" xlink:href="#path-5"></use>
                <use fill="url(#linearGradient-4)" fill-rule="evenodd" xlink:href="#path-5"></use>
            </g>
        </g>
    </g>
</svg>