<?xml version="1.0" encoding="UTF-8"?>
<svg width="32px" height="32px" viewBox="0 0 32 32" version="1.1" xmlns="http://www.w3.org/2000/svg" xmlns:xlink="http://www.w3.org/1999/xlink" style="background: #FFFFFF;">
    <title>3.数据看板导航/指标数据/数据/图标/ICON5</title>
    <defs>
        <linearGradient x1="-7.64619728%" y1="-29.4483225%" x2="82.0740555%" y2="123.304219%" id="linearGradient-1">
            <stop stop-color="#BB78F2" offset="0%"></stop>
            <stop stop-color="#8543E0" offset="100%"></stop>
        </linearGradient>
        <linearGradient x1="-7.64619728%" y1="-6.05873635%" x2="82.0740555%" y2="101.723457%" id="linearGradient-2">
            <stop stop-color="#BB78F2" offset="0%"></stop>
            <stop stop-color="#8543E0" offset="100%"></stop>
        </linearGradient>
    </defs>
    <g id="3.数据看板导航/指标数据/数据/图标/ICON5" stroke="none" stroke-width="1" fill="none" fill-rule="evenodd">
        <rect fill="#FFFFFF" x="0" y="0" width="32" height="32"></rect>
        <g id="qidong-1">
            <circle id="椭圆形" fill="url(#linearGradient-1)" opacity="0.15" cx="16" cy="16" r="16"></circle>
            <path d="M23.1352645,8.2962963 C24.1409554,8.2962963 24.956229,9.11156987 24.956229,10.1172608 L24.956229,18.0617272 C24.956229,19.0674181 24.1409554,19.8826917 23.1352645,19.8826917 L16.7471111,19.8822963 L16.7471111,21.6922963 L18.8061289,21.6930659 C19.2460594,21.6930659 19.6026936,22.0497001 19.6026936,22.4896306 C19.6026936,22.9295611 19.2460594,23.2861953 18.8061289,23.2861953 L13.2612111,23.2861953 C12.8212806,23.2861953 12.4646465,22.9295611 12.4646465,22.4896306 C12.4646465,22.0497001 12.8212806,21.6930659 13.2612111,21.6930659 L15.3191111,21.6922963 L15.3191111,19.8822963 L8.93207561,19.8826917 C7.92638469,19.8826917 7.11111111,19.0674181 7.11111111,18.0617272 L7.11111111,10.1172608 C7.11111111,9.11156987 7.92638469,8.2962963 8.93207561,8.2962963 L23.1352645,8.2962963 Z M18.3457766,16.9860928 L13.7215635,16.9860928 C13.4216108,16.9860928 13.1784512,17.2292525 13.1784512,17.5292051 C13.1784512,17.7991625 13.3754105,18.0231175 13.6334678,18.065209 L13.7215635,18.0723174 L18.3457766,18.0723174 C18.6457292,18.0723174 18.8888889,17.8291577 18.8888889,17.5292051 C18.8888889,17.2292525 18.6457292,16.9860928 18.3457766,16.9860928 Z" id="合并形状" fill="url(#linearGradient-2)"></path>
        </g>
    </g>
</svg>