<?xml version="1.0" encoding="UTF-8"?>
<svg width="16px" height="17px" viewBox="0 0 16 17" version="1.1" xmlns="http://www.w3.org/2000/svg" xmlns:xlink="http://www.w3.org/1999/xlink">
    <g id="国际化" stroke="none" stroke-width="1" fill="none" fill-rule="evenodd">
        <g id="控制中心登录页" transform="translate(-1450.000000, -22.000000)" stroke="currentColor" stroke-width="0.8">
            <g id="language" transform="translate(1451.000000, 23.202763)">
                <path d="M7,14.0188882 C7.49904711,14.0188882 7.98589692,13.9666653 8.45538265,13.8673863 C9.77382681,13.5885838 10.9553311,12.9386779 11.8854664,12.0320977 C13.1899395,10.7606596 14,8.9843738 14,7.01888822 C14,5.06923861 13.2029403,3.30575229 11.9169005,2.03650894 C10.9897696,1.12148699 9.80850384,0.463335251 8.48853425,0.177484865 C8.00882866,0.0736006309 7.51080371,0.0188882219 7,0.0188882219 C6.4783953,0.0188882219 5.9701155,0.07593889 5.48106013,0.18414069 C2.34536911,0.877901428 0,3.67449967 0,7.01888822 C0,8.98142723 0.807633526,10.7553333 2.10867012,12.026376 C3.02304345,12.9196695 4.18112485,13.5645822 5.473833,13.8520327 C5.96510737,13.961274 6.47582542,14.0188882 7,14.0188882 Z M6.42333053,14.0595003 C4.37405634,12.6381524 3,10.0224662 3,7.03091301 C3,4.03772738 4.37555633,1.42081912 6.42668584,-2.14939178e-13 M7.43068743,14.0595003 C9.47996162,12.6381524 10.854018,10.0224662 10.854018,7.03091301 C10.854018,4.03772738 9.47846164,1.42081912 7.42733212,-3.57935903e-13 M11.9772901,12.0968365 C10.7084241,10.8138199 8.94704518,10.0188882 7,10.0188882 C5.16190414,10.0188882 3.4892775,10.7273461 2.24028536,11.8860967 M2.186259,2.10102576 C3.44083925,3.28975033 5.13526999,4.01888822 7,4.01888822 C8.83619932,4.01888822 10.5072707,3.31189152 11.7558472,2.15526511" id="形状结合"></path>
                <line x1="0" y1="7.01888822" x2="14" y2="7.01888822" id="路径-6"></line>
                <line x1="6.97105309" y1="14.0595003" x2="7" y2="-2.27373675e-13" id="路径-7"></line>
            </g>
        </g>
    </g>
</svg>